REM MD5 c192859c77adacb573a8bb1c25d9b222
FILE "Angelique Special (Japan).bin" BINARY
  TRACK 01 MODE2/2352
    INDEX 01 00:00:00
  TRACK 02 AUDIO
    INDEX 00 31:54:13
    INDEX 01 37:20:00
  TRACK 03 AUDIO
    INDEX 00 60:40:43
    INDEX 01 60:42:43
REM LEADOUT 63:49:18
